<svg width="57" height="56" viewBox="0 0 57 56" fill="none" xmlns="http://www.w3.org/2000/svg">
<path d="M49.2356 35C49.2356 36.2377 48.7439 37.4247 47.8688 38.2998C46.9936 39.175 45.8066 39.6667 44.5689 39.6667H16.5689L7.2356 49V11.6667C7.2356 10.429 7.72726 9.242 8.60243 8.36683C9.4776 7.49167 10.6646 7 11.9023 7H44.5689C45.8066 7 46.9936 7.49167 47.8688 8.36683C48.7439 9.242 49.2356 10.429 49.2356 11.6667V35Z" stroke="white" stroke-width="4.66667" stroke-linecap="round" stroke-linejoin="round"/>
<path d="M34.7689 17.5001C33.9639 16.6965 32.873 16.2451 31.7356 16.2451C30.5981 16.2451 29.5072 16.6965 28.7022 17.5001L28.2356 18.2001L27.5356 17.5001C27.1066 17.1324 26.6094 16.8528 26.0723 16.6772C25.5353 16.5017 24.9689 16.4336 24.4056 16.477C23.8422 16.5203 23.2929 16.6742 22.7891 16.9298C22.2852 17.1854 21.8366 17.5378 21.4689 17.9668C21.1012 18.3957 20.8216 18.893 20.646 19.43C20.4705 19.967 20.4024 20.5334 20.4458 21.0967C20.4891 21.6601 20.643 22.2094 20.8986 22.7133C21.1542 23.2171 21.5066 23.6657 21.9356 24.0334L28.2356 30.3334L34.5356 24.0334C36.6356 21.9334 36.4022 19.1334 34.7689 17.5001Z" stroke="white" stroke-width="4.66667" stroke-linecap="round" stroke-linejoin="round"/>
</svg>
