<svg width="55" height="55" viewBox="0 0 55 55" fill="none" xmlns="http://www.w3.org/2000/svg">
<rect width="55" height="55" rx="27.5" fill="#3399FF" fill-opacity="0.18"/>
<path d="M36 29C36 34 32.5 36.5 28.34 37.95C28.1222 38.0238 27.8855 38.0202 27.67 37.94C23.5 36.5 20 34 20 29V22C20 21.7347 20.1054 21.4804 20.2929 21.2929C20.4804 21.1053 20.7348 21 21 21C23 21 25.5 19.8 27.24 18.28C27.4519 18.099 27.7214 17.9995 28 17.9995C28.2786 17.9995 28.5481 18.099 28.76 18.28C30.51 19.81 33 21 35 21C35.2652 21 35.5196 21.1053 35.7071 21.2929C35.8946 21.4804 36 21.7347 36 22V29Z" stroke="#3399FF" stroke-width="2" stroke-linecap="round" stroke-linejoin="round"/>
<path d="M25 28L27 30L31 26" stroke="#3399FF" stroke-width="2" stroke-linecap="round" stroke-linejoin="round"/>
</svg>
