<svg width="400" height="400" viewBox="0 0 400 400" fill="none" xmlns="http://www.w3.org/2000/svg">
<path d="M71.3329 205.638C0.274298 246.664 0.275898 313.18 71.3369 354.206C142.398 395.231 257.609 395.231 328.668 354.206C399.727 313.18 399.725 246.664 328.664 205.638C257.603 164.613 142.392 164.613 71.3329 205.638Z" fill="#FAFAFA"/>
<path d="M231.391 357.106C251.726 357.106 268.211 347.589 268.211 335.848C268.211 324.108 251.726 314.591 231.391 314.591C211.057 314.591 194.572 324.108 194.572 335.848C194.572 347.589 211.057 357.106 231.391 357.106Z" fill="#E0E0E0"/>
<path d="M59.5235 326.656L52.0675 330.96C52.1315 326.888 51.8595 319.176 49.6995 309.152C44.7555 286.176 34.7234 282.184 29.8354 273.24C24.6994 263.832 31.2994 258.192 37.5235 259.16C43.0835 260.016 51.8915 266.856 56.2995 280.976C62.1155 299.592 60.6835 318.168 59.5235 326.656Z" fill="#5169F6"/>
<path opacity="0.5" d="M59.5235 326.656L52.0675 330.96C52.1315 326.888 51.8595 319.176 49.6995 309.152C44.7555 286.176 34.7234 282.184 29.8354 273.24C24.6994 263.832 31.2994 258.192 37.5235 259.16C43.0835 260.016 51.8915 266.856 56.2995 280.976C62.1155 299.592 60.6835 318.168 59.5235 326.656Z" fill="white"/>
<path d="M55.1385 324.836C54.9241 324.805 54.7761 324.608 54.8065 324.393C58.7601 296.737 46.4273 272.908 36.4073 264.821C36.2393 264.684 36.2129 264.438 36.3481 264.27C36.4857 264.1 36.7305 264.075 36.8993 264.21C47.0625 272.414 59.5777 296.544 55.5809 324.505C55.5505 324.718 55.3529 324.867 55.1385 324.836Z" fill="white"/>
<path d="M55.7871 328.815L52.0671 330.959L51.4591 331.311C50.2351 325.751 46.9631 319.951 40.7631 313.735C33.4911 306.447 23.3551 299.639 25.1471 293.519C26.9311 287.399 35.1151 289.015 40.7631 292.639C46.0663 296.047 57.3631 308.615 55.7871 328.815Z" fill="#5169F6"/>
<path opacity="0.65" d="M55.7871 328.815L52.0671 330.959L51.4591 331.311C50.2351 325.751 46.9631 319.951 40.7631 313.735C33.4911 306.447 23.3551 299.639 25.1471 293.519C26.9311 287.399 35.1151 289.015 40.7631 292.639C46.0663 296.047 57.3631 308.615 55.7871 328.815Z" fill="white"/>
<path d="M53.8041 327.093C53.6209 327.066 53.4761 326.913 53.4689 326.721C52.9497 313.167 38.0769 295.624 30.9945 292.746C30.7937 292.665 30.6977 292.436 30.7793 292.236C30.8593 292.035 31.0857 291.937 31.2889 292.021C38.7153 295.038 53.7121 312.604 54.2513 326.69C54.2601 326.907 54.0913 327.089 53.8753 327.097C53.8513 327.098 53.8281 327.097 53.8041 327.093Z" fill="white"/>
<path d="M83.4063 368.097L147.96 270.075L104.417 244.935L39.8633 342.958L83.4063 368.097Z" fill="#5169F6"/>
<path opacity="0.2" d="M83.4063 368.097L147.96 270.075L104.417 244.935L39.8633 342.958L83.4063 368.097Z" fill="#4154C5"/>
<path d="M147.959 270.075L83.4062 368.098L109.532 353.014L156.611 281.806L147.959 270.075Z" fill="#5169F6"/>
<path opacity="0.2" d="M147.959 270.075L83.4062 368.098L109.532 353.014L156.611 281.806L147.959 270.075Z" fill="black"/>
<path d="M265.104 57.5249L269.37 76.6185L286.906 86.8786L282.542 67.5921L265.104 57.5249Z" fill="#5169F6"/>
<path opacity="0.2" d="M265.104 57.5249L269.37 76.6185L286.906 86.8786L282.542 67.5921L265.104 57.5249Z" fill="black"/>
<path d="M227.302 151.688L282.542 67.5921L265.104 57.5249L331.405 38.8201L343.481 102.776L326.085 92.7322L270.845 176.828L227.302 151.688Z" fill="#5169F6"/>
<path opacity="0.2" d="M227.302 151.688L282.542 67.5921L265.104 57.5249L331.405 38.8201L343.481 102.776L326.085 92.7322L270.845 176.828L227.302 151.688Z" fill="#4154C5"/>
<path d="M326.085 92.7319L270.874 176.827L280.652 187.941L330.516 112.05L347.868 122.074L343.482 102.776L326.085 92.7319Z" fill="#5169F6"/>
<path opacity="0.2" d="M326.085 92.7319L270.874 176.827L280.652 187.941L330.516 112.05L347.868 122.074L343.482 102.776L326.085 92.7319Z" fill="black"/>
<path d="M237.081 162.883L227.302 151.769L270.873 176.827L280.652 187.941L237.081 162.883Z" fill="#5169F6"/>
<path opacity="0.4" d="M237.081 162.883L227.302 151.769L270.873 176.827L280.652 187.941L237.081 162.883Z" fill="black"/>
<path opacity="0.2" d="M330.516 112.05L326.085 92.7319L343.482 102.776L347.867 122.074L330.516 112.05Z" fill="black"/>
<path d="M263.138 316.497C263.138 321.119 263.101 327.373 263.125 331.353C263.131 332.22 263.137 333.286 263.137 334.704C263.143 334.71 263.143 334.716 263.137 334.722C262.501 338.885 259.423 342.949 253.904 346.136C241.424 353.34 221.189 353.34 208.708 346.136C202.274 342.423 199.16 337.516 199.366 332.65V332.614C199.403 332.202 199.445 331.772 199.499 331.324C199.499 331.305 199.505 331.288 199.505 331.275C200.044 326.543 200.433 321.809 200.699 317.369C201.123 310.323 201.064 307.221 201.007 303.428C200.935 298.748 198.991 295.069 194.053 290.92C189.115 286.764 179.301 272.575 179.301 272.575L244.399 239.115L262.907 297.736C262.907 297.734 263.138 311.875 263.138 316.497Z" fill="#FFA8A7"/>
<path d="M244.899 226.984C244.899 226.984 243.67 231.915 237.854 225.392C232.037 218.869 222.52 208.898 212.492 199.305C207.685 194.707 188.424 179.212 175.501 167.504C171.384 163.257 165.534 160.282 161.513 163.373C157.492 166.463 157.48 174.055 160.013 177.818C162.254 181.15 167.058 185.775 170.725 189.096C170.702 189.297 170.679 189.495 170.655 189.697C169.962 195.75 192.911 206.397 192.323 213.737C191.973 218.108 159.942 195.915 160.013 200.404C153.131 204.849 172.606 237.528 178.596 242.311C184.586 247.095 187.194 249.042 187.127 250.551C187.023 252.867 177.322 244.448 173.006 241.485C173.246 255.223 164.468 256.877 164.468 256.877C165.786 259.522 173.273 265.347 183.914 278.97C188.114 284.347 230.866 248.958 230.866 248.958L241.018 242.441L248.162 230.621L244.899 226.984Z" fill="#FFA8A7"/>
<path d="M241.348 239.107C237.338 244.142 221.585 260.227 233.981 281.546C232.648 280.28 231.945 279.311 231.661 278.929C229.879 276.578 228.486 273.93 227.493 271.156C227.456 271.053 227.426 270.956 227.389 270.859C224.573 262.741 225.536 254.483 230.788 247.504C234.925 242.021 242.457 236.696 243.462 230.783C243.499 230.564 243.523 230.352 243.535 230.14C243.71 231.983 243.917 235.891 241.348 239.107Z" fill="#F28F8F"/>
<path opacity="0.5" d="M159.224 166.408C157.645 170.023 158.113 174.997 160.012 177.819C162.254 181.15 167.057 185.775 170.724 189.097C170.706 189.257 170.687 189.416 170.669 189.576C172.286 190.963 174.024 192.434 175.931 194.113C180.522 198.154 186.594 203.366 191.177 207.414C193.472 209.44 204.379 218.214 208.334 221.744C202.244 215.066 188.569 202.944 181.688 196.169C176.492 191.054 168.835 183.918 166.34 181.077C163.845 178.235 162.389 176.289 161.512 175.216C158.453 171.467 159.126 167.139 159.224 166.408Z" fill="#F28F8F"/>
<path d="M170.893 262.8C173.049 262.604 175.817 261.007 176.936 259.154C178.545 256.487 178.85 254.415 178.416 250.256C178.305 249.192 178.041 247.273 177.241 244.523C175.813 243.497 174.329 242.394 173.005 241.486C173.245 255.224 164.467 256.878 164.467 256.878C165.065 258.075 166.93 259.93 169.777 262.861C170.151 262.853 170.524 262.834 170.893 262.8Z" fill="#F28F8F"/>
<path d="M163.862 207.294C163.518 207.61 168.381 212.294 168.893 212.58C170.693 213.583 174.137 212.334 175.625 211.089C176.565 210.303 177.252 209.245 177.727 208.116C179.347 204.27 178.556 199.884 177.734 195.792C177.605 195.151 177.422 194.432 176.852 194.113C176.757 196.253 174.868 197.187 173.469 198.471C172.135 199.697 170.801 200.922 169.467 202.147C167.598 203.862 165.73 205.578 163.862 207.294Z" fill="#F28F8F"/>
<path d="M174.919 209.814L200.377 235.51L170.655 210.596L174.919 209.814Z" fill="#F28F8F"/>
<path d="M171.441 231.767C173.905 230.971 175.961 228.985 176.817 226.54C177.547 224.456 177.421 222.182 177.281 219.979C177.161 218.106 177.029 216.196 176.337 214.45L164.428 218.493C163.395 220.49 162.554 222.462 162.583 224.269C163.215 226.868 164.867 229.502 167.197 232.035C168.557 232.265 170.128 232.191 171.441 231.767Z" fill="#F28F8F"/>
<path d="M168.272 188.903C173.505 188.426 176.251 190.722 177.421 195.414C177.865 197.189 177.911 200.002 177.421 203.49C176.932 206.979 173.628 211.158 169.374 210.533C169.306 210.522 169.237 210.512 169.169 210.501C162.292 209.383 161.513 205.689 161.513 199.726C161.513 193.764 163.616 189.328 168.272 188.903Z" fill="#FFA8A7"/>
<path opacity="0.5" d="M174.45 190.286C174.83 190.614 177.049 192.788 177.069 198.805C177.09 205.382 173.79 206.746 170.148 207.332C166.506 207.918 161.593 205.65 161.593 202.356L161.59 202.357C161.906 206.782 163.367 209.558 169.169 210.501C169.238 210.512 169.307 210.522 169.375 210.533C173.629 211.158 176.933 206.978 177.422 203.49C177.912 200.002 177.866 197.188 177.422 195.414C176.847 193.112 175.89 191.39 174.45 190.286Z" fill="#F28F8F"/>
<path d="M168.39 209.87C173.17 209.434 175.679 211.531 176.749 215.817C177.153 217.439 177.196 220.008 176.749 223.195C176.301 226.382 173.283 230.2 169.397 229.628C169.335 229.619 169.273 229.609 169.209 229.599C162.928 228.579 162.216 225.204 162.216 219.757C162.216 214.31 164.137 210.258 168.39 209.87Z" fill="#FFA8A7"/>
<path opacity="0.5" d="M175.053 212.138C175.726 213.137 176.215 215.597 175.819 219.323C175.3 224.204 174.255 226.577 169.983 226.884C165.557 227.203 162.838 225.154 162.371 222.998C162.792 226.549 164.289 228.799 169.209 229.599C169.273 229.609 169.336 229.619 169.397 229.627C173.283 230.199 176.301 226.381 176.749 223.195C177.196 220.008 177.153 217.438 176.749 215.817C176.373 214.314 175.817 213.087 175.053 212.138Z" fill="#F28F8F"/>
<path d="M168.647 239.443C173.608 238.99 177.321 241.348 177.321 245.615V253.272C177.321 257.348 173.725 260.542 169.692 259.948C169.627 259.938 169.562 259.929 169.497 259.918C162.977 258.858 163.056 252.903 162.977 249.776C162.899 246.65 164.233 239.846 168.647 239.443Z" fill="#FFA8A7"/>
<path opacity="0.5" d="M174.904 240.807C177.072 243.075 176.228 247.691 176.06 252.244C175.944 255.403 174.3 258.02 169.983 258.02C165.665 258.02 163.732 255.382 163.145 252.799L163.143 252.794C163.5 255.776 164.747 259.146 169.496 259.918C169.562 259.928 169.628 259.939 169.692 259.948C173.724 260.541 177.32 257.348 177.32 253.272V245.615C177.32 243.511 176.414 241.874 174.904 240.807Z" fill="#F28F8F"/>
<path d="M113.656 237.936L220.369 157.028L263.94 182.167L157.199 263.076L113.656 237.936Z" fill="#5169F6"/>
<path d="M263.939 182.167L273.718 193.28L165.85 274.808L157.198 263.076L263.939 182.167Z" fill="#5169F6"/>
<path opacity="0.2" d="M263.939 182.167L273.718 193.28L165.85 274.808L157.198 263.076L263.939 182.167Z" fill="black"/>
<path d="M113.655 237.938L122.307 249.669L165.85 274.807L157.198 263.076L113.655 237.938Z" fill="#5169F6"/>
<path opacity="0.4" d="M113.655 237.938L122.307 249.669L165.85 274.807L157.198 263.076L113.655 237.938Z" fill="black"/>
<path d="M262.906 297.735C262.906 286.39 263.733 271.166 265.61 258.041C267.487 244.916 267.124 233.682 266.55 230.508C265.976 227.335 265.813 222.722 260.915 216.867C258.607 214.108 253.544 210.085 249.323 205.127C245.064 200.125 241.088 194.571 238.836 191.533C236.582 188.495 230.987 193.386 231.259 203.071C231.481 210.982 236.888 217.904 238.977 220.863C241.525 224.472 243.336 227.959 243.539 230.135C243.711 231.978 243.919 235.881 241.348 239.108C237.34 244.142 221.585 260.227 233.984 281.547V301.107L262.906 297.735Z" fill="#FFA8A7"/>
<path d="M239.847 197.455C239.847 197.455 244.655 203.977 246.191 204.816C247.726 205.654 248.164 203.742 248.164 203.742L248.158 203.733C245.95 200.631 241.831 194.988 238.834 191.533C239.22 192.184 240.099 194.57 239.847 197.455Z" fill="#FFA8A7"/>
<path opacity="0.6" d="M239.847 197.455C239.847 197.455 244.654 203.98 246.191 204.816C247.628 205.597 248.164 203.742 248.164 203.742L248.158 203.733C245.95 200.631 241.831 194.988 238.834 191.533C239.22 192.184 240.099 194.57 239.847 197.455Z" fill="white"/>
<path d="M248.164 203.742L248.158 203.733C248.164 203.742 247.696 203.001 247.444 202.734C247.663 204.263 246.554 204.971 246.554 204.971C247.819 205.341 248.164 203.742 248.164 203.742Z" fill="#F28F8F"/>
<g opacity="0.3">
<path d="M319.019 334.466C318.978 334.466 318.936 334.455 318.899 334.434L303.408 325.489C303.335 325.447 303.289 325.369 303.289 325.283C303.289 325.197 303.335 325.119 303.408 325.077L322.773 313.897C322.848 313.853 322.938 313.853 323.012 313.897L338.503 322.841C338.576 322.883 338.621 322.961 338.621 323.047C338.621 323.133 338.576 323.211 338.503 323.253L319.139 334.434C319.101 334.455 319.06 334.466 319.019 334.466ZM304.004 325.284L319.019 333.953L337.906 323.048L322.892 314.379L304.004 325.284Z" fill="#5169F6"/>
</g>
<path d="M319.018 331.992L319.017 251.811L307.398 245.103L307.4 325.284L319.018 331.992Z" fill="#5169F6"/>
<path opacity="0.2" d="M319.018 331.992L319.017 251.811L307.398 245.103L307.4 325.284L319.018 331.992Z" fill="black"/>
<path d="M319.018 331.992L334.51 323.048L334.512 242.869L319.017 251.811L319.018 331.992Z" fill="#5169F6"/>
<path d="M334.512 242.869L322.894 236.161L307.399 245.103L319.017 251.811L334.512 242.869Z" fill="#5169F6"/>
<path opacity="0.25" d="M334.512 242.869L322.894 236.161L307.399 245.103L319.017 251.811L334.512 242.869Z" fill="white"/>
<path opacity="0.3" d="M334.512 242.868L318.863 251.494L313.781 248.657L307.398 245.103L313.667 248.854L318.806 251.922C318.685 253.666 318.651 324.905 318.675 326.649C318.702 328.43 318.785 330.211 319.018 331.992C319.25 330.211 319.332 328.429 319.358 326.648C319.38 324.959 319.347 253.777 319.234 252.089L334.512 242.868Z" fill="white"/>
<g opacity="0.3">
<path d="M289.973 351.236C289.932 351.236 289.89 351.225 289.854 351.204L274.362 342.26C274.289 342.217 274.244 342.139 274.244 342.053C274.244 341.969 274.29 341.889 274.362 341.847L293.727 330.668C293.802 330.625 293.891 330.625 293.966 330.668L309.457 339.612C309.53 339.654 309.576 339.733 309.576 339.818C309.576 339.904 309.53 339.982 309.457 340.025L290.093 351.205C290.054 351.225 290.014 351.236 289.973 351.236ZM274.957 342.053L289.972 350.722L308.859 339.817L293.846 331.149L274.957 342.053Z" fill="#5169F6"/>
</g>
<path d="M289.973 348.761L289.97 300.655L278.352 293.947L278.354 342.053L289.973 348.761Z" fill="#5169F6"/>
<path opacity="0.1" d="M289.973 348.761L289.97 300.655L278.352 293.947L278.354 342.053L289.973 348.761Z" fill="white"/>
<path d="M289.973 348.761L305.464 339.817L305.466 291.712L289.97 300.655L289.973 348.761Z" fill="#5169F6"/>
<path opacity="0.3" d="M289.973 348.761L305.464 339.817L305.466 291.712L289.97 300.655L289.973 348.761Z" fill="white"/>
<path d="M305.466 291.712L293.847 285.004L278.352 293.947L289.97 300.655L305.466 291.712Z" fill="#5169F6"/>
<path opacity="0.55" d="M305.466 291.712L293.847 285.004L278.352 293.947L289.97 300.655L305.466 291.712Z" fill="white"/>
<path opacity="0.3" d="M290.177 300.94L305.466 291.712L289.814 300.34C288.127 299.384 286.43 298.444 284.735 297.501L278.352 293.947L284.622 297.698C286.335 298.724 288.046 299.754 289.769 300.766C289.714 302.575 289.658 311.3 289.642 313.108C289.623 314.954 289.615 335.842 289.63 337.688C289.641 339.533 289.671 341.379 289.733 343.224C289.779 345.07 289.854 346.916 289.973 348.761C290.091 346.916 290.166 345.07 290.212 343.224C290.273 341.379 290.303 339.533 290.313 337.688C290.327 335.842 290.318 314.954 290.3 313.108C290.283 311.358 290.23 302.691 290.177 300.94Z" fill="white"/>
<g opacity="0.3">
<path d="M260.926 368.005C260.886 368.005 260.844 367.995 260.807 367.973L245.316 359.029C245.242 358.987 245.197 358.909 245.197 358.823C245.197 358.737 245.242 358.659 245.316 358.617L264.681 347.437C264.755 347.394 264.845 347.394 264.919 347.437L280.41 356.381C280.484 356.423 280.529 356.501 280.529 356.587C280.529 356.673 280.484 356.751 280.41 356.793L261.046 367.973C261.009 367.995 260.967 368.005 260.926 368.005ZM245.912 358.824L260.926 367.493L279.813 356.588L264.799 347.919L245.912 358.824Z" fill="#5169F6"/>
</g>
<path d="M260.926 365.531L260.924 348.626L249.306 341.917L249.308 358.824L260.926 365.531Z" fill="#5169F6"/>
<path opacity="0.45" d="M260.926 365.531L260.924 348.626L249.306 341.917L249.308 358.824L260.926 365.531Z" fill="black"/>
<path d="M260.926 365.531L276.417 356.588L276.42 339.682L260.924 348.626L260.926 365.531Z" fill="#5169F6"/>
<path opacity="0.3" d="M260.926 365.531L276.417 356.588L276.42 339.682L260.924 348.626L260.926 365.531Z" fill="black"/>
<path d="M276.42 339.682L264.801 332.974L249.306 341.918L260.924 348.626L276.42 339.682Z" fill="#5169F6"/>
<path opacity="0.15" d="M276.42 339.682L264.801 332.974L249.306 341.918L260.924 348.626L276.42 339.682Z" fill="black"/>
<path opacity="0.3" d="M276.42 339.682L260.771 348.309L255.689 345.472L249.305 341.918L255.575 345.669L260.711 348.734C260.593 349.796 260.56 361.176 260.584 362.238C260.61 363.336 260.693 364.434 260.926 365.532C261.158 364.434 261.241 363.336 261.266 362.238C261.288 361.23 261.257 349.906 261.153 348.898L276.42 339.682Z" fill="white"/>
<g opacity="0.3">
<path d="M348.065 317.696C348.024 317.696 347.983 317.686 347.946 317.664L332.455 308.72C332.381 308.678 332.335 308.599 332.335 308.514C332.335 308.428 332.381 308.35 332.455 308.307L351.819 297.128C351.894 297.085 351.983 297.085 352.058 297.128L367.549 306.071C367.623 306.114 367.668 306.192 367.668 306.278C367.668 306.363 367.623 306.442 367.549 306.484L348.184 317.664C348.147 317.686 348.106 317.696 348.065 317.696ZM333.051 308.515L348.065 317.183L366.953 306.279L351.939 297.61L333.051 308.515Z" fill="#5169F6"/>
</g>
<path d="M348.065 315.222L348.063 204.23L336.445 197.522L336.447 308.514L348.065 315.222Z" fill="#5169F6"/>
<path opacity="0.3" d="M348.065 315.222L348.063 204.23L336.445 197.522L336.447 308.514L348.065 315.222Z" fill="white"/>
<path d="M348.065 315.223L363.556 306.279L363.559 195.287L348.063 204.23L348.065 315.223Z" fill="#5169F6"/>
<path opacity="0.55" d="M348.065 315.223L363.556 306.279L363.559 195.287L348.063 204.23L348.065 315.223Z" fill="white"/>
<path d="M363.559 195.287L351.94 188.579L336.445 197.522L348.063 204.23L363.559 195.287Z" fill="#5169F6"/>
<path opacity="0.75" d="M363.559 195.287L351.94 188.579L336.445 197.522L348.063 204.23L363.559 195.287Z" fill="white"/>
<path opacity="0.3" d="M348.268 204.517L363.559 195.288L347.907 203.916C346.22 202.96 344.523 202.02 342.828 201.077L336.445 197.523L342.715 201.274C344.428 202.301 346.139 203.33 347.862 204.342C347.807 206.392 347.751 232.099 347.735 234.149C347.716 236.235 347.708 300.616 347.723 302.702C347.734 304.789 347.764 306.876 347.825 308.962C347.871 311.049 347.947 313.136 348.065 315.222C348.183 313.136 348.258 311.049 348.304 308.962C348.365 306.876 348.396 304.789 348.405 302.702C348.42 300.616 348.411 236.235 348.392 234.149C348.376 232.157 348.321 206.508 348.268 204.517Z" fill="white"/>
<path opacity="0.5" d="M78.3766 135.872L33.4958 161.784L55.9374 120.56L78.3766 135.872Z" fill="#5169F6"/>
<path opacity="0.3" d="M78.0883 156.445L33.2075 182.357L55.6491 141.132L78.0883 156.445Z" fill="#5169F6"/>
<path opacity="0.15" d="M78.3766 173.562L33.4958 199.474L55.9374 158.25L78.3766 173.562Z" fill="#5169F6"/>
<path opacity="0.2" d="M180.411 227.254C183.985 224.172 188.725 221.282 194.495 218.665C200.98 215.724 208.777 213.118 214.191 209.919C221.227 205.762 223.909 200.752 223.396 195.71C223.105 192.855 221.404 189.689 214.913 187.585C213.252 187.046 211.227 186.586 209.046 186.48C205.844 186.325 203.068 186.952 200.833 187.628C188.908 191.237 183.845 196.782 179.845 202.17C175.844 207.557 170.986 210.679 162.254 215.757C158.517 217.93 154.508 220.057 150.978 222.257C150.95 222.274 150.922 222.292 150.893 222.31C149.11 223.428 147.146 224.464 145.742 225.663C143.503 227.576 141.532 229.549 140.726 231.637C139.919 233.725 140.322 235.946 142.702 238.026C143.315 238.561 144.113 239.11 145.474 239.474C146.627 239.782 148.07 239.924 149.464 239.971C152.304 240.067 155.048 239.798 157.367 239.343C159.686 238.889 161.62 238.258 163.405 237.591C171.188 234.687 176.143 230.933 180.411 227.254Z" fill="black"/>
<path d="M143.841 121.079C143.187 122.814 141.283 126.498 141.402 126.963C141.727 128.235 141.79 129.011 141.51 130.495C141.342 131.382 133.667 134.399 133.667 134.399L133.481 133.185C133.355 132.367 133.457 131.531 133.784 130.771C134.673 128.695 136.488 124.158 137.054 120.493L143.841 121.079Z" fill="#FFA8A7"/>
<path d="M141.781 130.571L134.139 134.725L134.19 136.055C134.19 136.055 141.373 132.684 141.603 131.561C141.676 131.199 141.733 130.877 141.781 130.571Z" fill="#F28F8F"/>
<path d="M141.067 129.799L134.092 133.974L134.13 135.296C134.13 135.296 140.683 131.901 140.9 130.783C140.968 130.423 141.022 130.103 141.067 129.799Z" fill="#F28F8F"/>
<path d="M134 134L134.667 135.667" stroke="#F28F8F" stroke-width="0.772201"/>
<path d="M140.384 132.318C140.552 132.324 140.714 132.373 140.849 132.475C141.058 132.123 141.464 131.897 141.874 131.904C142.054 131.907 142.262 131.98 142.309 132.154C142.324 132.211 142.319 132.272 142.314 132.332C142.258 132.91 142.178 133.486 142.075 134.058C142 134.47 141.895 134.913 141.578 135.188C141.318 135.414 140.935 135.486 140.611 135.37C140.494 135.643 140.258 135.858 139.983 135.968C139.919 135.994 139.112 136.064 139.162 135.97C138.858 136.537 138.19 137.121 137.326 136.949C137.326 136.949 137.11 137.57 135.971 137.436C134.831 137.302 134.327 136.046 134.327 136.046C134.391 135.694 134.512 135.554 134.904 135.402C135.098 135.326 135.307 135.239 135.493 135.146C135.761 135.013 135.934 134.702 136.127 134.474C136.324 134.243 136.552 134.025 136.836 133.916C137.12 133.808 137.471 133.831 137.692 134.039C137.718 133.804 137.875 133.606 138.038 133.435C138.186 133.282 138.369 133.128 138.589 133.105C138.654 133.098 139.174 133.189 139.11 133.325C139.266 132.988 139.483 132.665 139.801 132.474C139.974 132.368 140.182 132.311 140.384 132.318Z" fill="#FFA8A7"/>
<path d="M144.983 120.494C144.486 122.791 143.238 124.854 143.793 126.783C144.167 128.087 144.27 127.954 144.118 129.283C144.062 129.775 143.861 130.556 143.692 131.023C143.592 131.3 143.494 131.578 143.394 131.855C143.288 132.147 143.181 132.44 143.028 132.71C142.831 133.058 142.561 133.359 142.305 133.662C141.854 134.194 141.387 134.724 140.81 135.115C140.778 135.135 140.746 135.154 140.71 135.165C140.566 135.212 140.403 135.147 140.302 135.035C139.8 134.484 140.179 133.683 140.442 133.125C140.736 132.504 141.082 131.876 141.067 131.169C141.066 131.082 141.06 130.805 141.068 130.367C141.064 130.369 140.358 130.191 140.358 130.191C140.358 130.191 138.065 129.639 138.023 128.529C137.982 127.419 138.863 126.35 139.524 125.051C140.201 123.72 140.462 122.899 141.138 119.536L144.983 120.494Z" fill="#FFA8A7"/>
<path d="M143.028 132.709C142.506 133.56 141.837 134.319 141.088 134.98C140.962 135.075 140.854 135.24 140.627 135.259C139.557 135.058 140.061 133.644 140.421 133.022C140.714 132.432 141.049 131.842 141.067 131.168C141.113 131.844 140.81 132.483 140.536 133.076C140.255 133.655 139.754 134.838 140.621 135.1C141.531 134.559 142.35 133.553 143.028 132.709Z" fill="#F28F8F"/>
<path d="M140.886 130.152C140.606 130.01 140.3 129.905 140.035 129.734C139.83 129.6 139.658 129.417 139.52 129.215C139.186 128.726 138.889 128.084 138.986 127.481C138.992 127.444 138.95 127.377 138.928 127.438C138.682 128.118 138.871 128.89 139.237 129.494C139.408 129.776 139.664 130.002 139.943 130.174C140.087 130.263 140.242 130.33 140.407 130.372C140.594 130.419 140.728 130.423 140.902 130.342C140.966 130.312 140.938 130.178 140.886 130.152Z" fill="#F28F8F"/>
<path d="M158.619 74.4379C153.661 74.0563 149.702 75.0403 147.14 81.5611C144.245 88.9258 141.396 94.6066 139.961 99.9658C138.526 105.324 136.406 122.275 136.406 122.275C136.406 122.275 140.153 125.538 144.274 124.05L150.513 104.783L158.619 89.193V74.4379Z" fill="#E6E6E6"/>
<path d="M214.912 196.07C215.259 195.828 215.766 196.722 215.778 197.28C215.812 198.881 214.734 201.226 212.398 203.301C210.061 205.375 204.455 207.581 202.841 208.402C201.226 209.223 198.948 211.545 197.516 212.677C194.906 214.739 192.5 215.04 191.048 214.641C190.478 214.485 190.145 213.972 189.901 213.506C189.32 212.401 189.293 212.128 189.419 212.069L214.912 196.07Z" fill="#37474F"/>
<path d="M187.958 208.717C188.322 209.912 189.139 211.787 189.898 212.789C190.682 213.416 191.827 213.382 192.662 213.208C194.866 212.75 196.641 211.612 198.459 210.02C199.548 209.067 200.738 208.032 202.267 207.285C203.948 206.464 207.75 204.824 209.399 203.932C210.799 203.176 212.424 201.899 213.373 200.591C214.175 199.485 215.192 197.46 215.09 196.42C214.351 194.262 213.501 193.208 212.001 193.173C210.417 193.137 208.635 193.95 206.18 195.086C205.445 195.427 204.532 195.882 204.132 196.051C202.619 196.689 201.226 197.326 200.106 197.86C199.147 198.318 198.202 198.756 197.115 198.765C196.598 198.769 196.177 198.713 195.763 198.404C195.257 198.028 194.855 197.293 194.394 197.496C194.394 197.496 187.091 203.367 186.475 203.797C185.766 204.296 186.858 205.098 187.958 208.717Z" fill="#455A64"/>
<path d="M204.715 195.629C205.038 195.653 205.459 195.847 205.704 196.003C206.041 196.216 206.321 196.444 206.597 196.733C206.934 197.085 206.472 197.449 206.011 197.088C205.695 196.84 205.352 196.551 204.807 196.29C204.547 196.165 204.076 196.076 203.828 196.181C203.641 196.261 203.396 196.366 203.396 196.366C203.335 196 204.287 195.596 204.715 195.629Z" fill="#FAFAFA"/>
<path d="M200.838 197.235C201.109 197.042 201.387 196.988 201.726 197.043C202.126 197.108 202.47 197.32 202.773 197.576C203.018 197.784 203.589 198.348 203.776 198.612C203.954 198.86 203.326 199.2 203.098 198.948C202.872 198.701 202.442 198.25 202.161 198.016C201.988 197.872 201.278 197.358 200.81 197.528L200.61 197.624C200.557 197.533 200.644 197.402 200.718 197.333C200.756 197.297 200.796 197.264 200.838 197.235Z" fill="#FAFAFA"/>
<path d="M198.668 198.363C198.916 198.32 199.059 198.272 199.294 198.372C199.514 198.468 199.811 198.654 199.983 198.825C200.458 199.3 200.618 199.55 200.899 200.024C201.098 200.36 200.428 200.616 200.28 200.4C199.813 199.719 199.55 199.249 198.917 198.915C198.394 198.64 198.068 198.652 198.068 198.652C198.051 198.581 198.138 198.523 198.204 198.499C198.306 198.462 198.56 198.381 198.668 198.363Z" fill="#FAFAFA"/>
<path d="M181.453 195.395C181.453 195.395 185.554 202.649 186.686 204.265C187.048 204.782 188.205 204.424 188.868 204.358C189.531 204.292 190.578 204.19 191.291 204.39C193.398 204.981 194.439 204.836 193.94 202.02C193.837 201.444 194.188 200.952 194.872 200.721C195.382 200.548 195.968 200.491 196.381 200.137C196.427 200.051 196.322 199.964 196.234 199.92C195.557 199.59 195.175 199.355 194.703 198.332C193.244 195.166 191.908 188.646 191.908 188.646L181.453 195.395Z" fill="#FFA8A7"/>
<path d="M150.392 211.618C151.648 209.61 152.327 205.742 155.091 197.884L165.34 205.389L159.469 216.834C159.136 217.408 159.124 218.271 159.007 218.439C157.637 220.407 150.392 211.618 150.392 211.618Z" fill="#FFA8A7"/>
<path d="M146.596 215.903C146.611 215.787 146.55 214.84 146.579 214.726C146.846 213.706 147.476 213.425 148.285 212.855C149.288 212.149 150.26 211.303 150.518 210.946C150.789 210.57 150.841 210.376 151.262 210.205C151.978 209.914 153.13 209.89 154.549 210.636C156.874 211.857 157.584 213.328 157.45 214.922C157.348 216.137 157.246 217.753 158.318 218.476C158.763 218.777 159.468 216.834 159.468 216.834C160.129 217.942 159.201 219.474 158.717 221.718C158.385 223.256 158.466 223.926 158.652 225.489C158.887 227.458 159.159 227.45 160.205 227.587C161.106 227.706 163.66 227.534 165.214 228.619C167.355 230.115 166.783 232.105 166.783 232.105C166.506 232.862 164.177 236.535 155.668 235.163C153.2 234.766 148.015 230.885 148.094 230.523C148.168 230.186 148.086 229.748 148.074 229.408C148.045 228.538 148.007 227.668 147.97 226.798C147.935 226.006 148.016 225.083 147.825 224.313C147.655 223.627 147.574 222.97 147.508 222.258C147.345 220.511 147.182 218.764 147.019 217.018C146.972 216.514 146.528 216.399 146.596 215.903Z" fill="#455A64"/>
<path d="M145.524 215.558C144.685 216.37 145.195 218.726 146.321 221.554C146.82 222.809 147.75 224.968 147.477 227.263C147.204 229.558 147.156 230.643 147.747 231.719C148.673 233.402 153.62 235.556 156.535 236.23C156.535 236.23 153.864 232.878 153.571 227.81C153.278 222.744 152.891 219.478 150.574 217.231C147.645 214.39 145.524 215.558 145.524 215.558Z" fill="#263238"/>
<path d="M166.783 232.106C166.783 232.106 165.077 235.303 158.494 235.199C155.902 235.158 154.515 233.895 154.451 229.956C154.374 225.209 153.992 220.415 152.457 218.058C150.922 215.701 148.476 214.559 146.579 214.727C146.25 214.779 145.833 215.094 145.524 215.559C145.524 215.559 147.422 214.935 150.376 217.386C152.557 219.195 153.146 222.975 153.114 227.67C153.099 229.69 152.977 231.981 153.568 233.513C154.114 234.926 155.322 235.894 156.711 236.283C160.29 237.289 165.188 235.632 166.427 234.119C167.138 233.111 166.783 232.106 166.783 232.106Z" fill="#37474F"/>
<path d="M158.875 226.726C158.875 226.726 159.355 227.065 159.407 227.511C159.459 227.958 159.305 228.989 158.37 229.573C157.974 229.82 157.628 229.734 158.258 228.902C158.887 228.07 158.875 226.726 158.875 226.726Z" fill="#FAFAFA"/>
<path d="M158.521 224.269C158.521 224.269 158.73 224.403 158.782 225.063C158.81 225.417 158.26 226.842 157.567 227.182C156.874 227.521 157.249 226.722 157.55 226.33C157.879 225.9 158.46 224.922 158.521 224.269Z" fill="#FAFAFA"/>
<path d="M158.755 221.554C158.755 221.554 158.979 221.617 158.739 222.525C158.658 222.831 157.751 223.73 157.304 223.784C156.858 223.838 156.641 223.614 157.189 223.217C157.621 222.904 158.671 221.994 158.755 221.554Z" fill="#FAFAFA"/>
<path d="M175.551 120.094C175.551 120.094 179.534 124.867 181.942 133.795C184.865 144.631 185.996 152.967 186.91 159.015C187.485 162.815 188.035 166.481 189.358 173.788C190.615 180.732 193.737 195.756 193.737 195.756C193.737 195.756 193.188 198.045 190.099 199.397C187.009 200.749 183.666 200.231 183.666 200.231C183.666 200.231 181.547 196.612 177.13 188.088C174.134 182.305 173.64 179.155 173.06 176.195C172.626 173.967 172.11 169.615 172.153 167.613L155.574 139.443C155.574 139.443 153.797 137.592 152.248 133.703C149.905 127.821 152.897 119.346 152.897 119.346L175.551 120.094Z" fill="#37474F"/>
<path d="M175.551 120.094C175.551 120.094 179.534 124.867 181.942 133.795C184.865 144.631 185.996 152.967 186.91 159.015C187.485 162.815 188.035 166.481 189.358 173.788C190.615 180.732 193.737 195.756 193.737 195.756C193.737 195.756 193.188 198.045 190.099 199.397C187.009 200.749 183.666 200.231 183.666 200.231C183.666 200.231 181.547 196.612 177.13 188.088C174.134 182.305 173.64 179.155 173.06 176.195C172.626 173.967 172.11 169.615 172.153 167.613L155.574 139.443C155.574 139.443 153.797 137.592 152.248 133.703C149.905 127.821 152.897 119.346 152.897 119.346L175.551 120.094Z" fill="#37474F"/>
<path d="M186.585 156.845C185.713 151.022 184.531 143.391 181.942 133.794C181.195 131.025 180.296 128.657 179.412 126.706L158.383 126.336C156.818 129.993 155.58 134.562 159.005 140.142L159.906 146.8L172.154 167.611C172.111 169.614 172.627 173.966 173.061 176.194C173.641 179.154 174.135 182.303 177.131 188.086C177.263 188.34 177.386 188.576 177.513 188.821C178.842 186.838 180.917 183.624 181.711 181.746C182.915 178.893 183.741 173.394 185.004 166.43C185.469 163.864 186.071 160.144 186.585 156.845Z" fill="#263238"/>
<path d="M161.73 120.094C160.69 121.16 158.1 124.731 157.678 130.227C157.499 132.554 158.161 136.942 160.879 140.242C161.711 152.434 164.121 175.914 164.121 175.914C160.899 179.231 160.065 181.371 158.2 187.317C157.068 190.926 153.766 201.838 152.49 205.909C160.305 206.248 161.777 212.945 161.777 212.945C161.777 212.945 171.25 197.674 176.03 189.047C179.565 182.67 180.017 181.151 180.977 177.353C181.936 173.554 182.116 170.032 183.278 162.099C184.439 154.166 186.499 143.239 187.068 135.43C187.637 127.621 187.743 119.344 187.743 119.344L161.73 120.094Z" fill="#37474F"/>
<path d="M151.395 129.65C152.185 129.423 153.31 128.667 153.735 127.988C153.991 127.579 154.145 126.998 154.34 126.262C154.554 125.459 154.819 124.458 155.324 123.333L155.927 123.602C155.444 124.681 155.197 125.611 154.979 126.433C154.768 127.222 154.603 127.846 154.295 128.338C153.791 129.147 152.483 130.062 151.451 130.309C151.429 130.088 151.409 129.869 151.395 129.65Z" fill="#263238"/>
<path d="M167.052 136.635C166.884 136.631 166.742 136.617 166.63 136.593C165.674 136.382 164.93 135.738 163.448 133.843C162.319 132.4 162.435 131.363 162.626 129.646C162.696 129.016 163.36 125.646 163.402 124.758L164.034 125.11C163.991 126.018 163.353 129.079 163.282 129.719C163.092 131.426 163.006 132.206 163.968 133.437C165.338 135.189 165.993 135.776 166.772 135.948C167.527 136.118 170.874 135.564 171.766 134.947C172.28 134.589 173.143 130.184 173.647 126.307L174.302 126.393C174.047 128.352 173.138 134.801 172.142 135.49C171.256 136.102 168.382 136.67 167.052 136.635Z" fill="#263238"/>
<path d="M152.729 77.9747C150.495 82.2443 150.772 86.0683 151.416 92.0579C152.011 97.5818 152.427 101.003 152.936 107.836C153.518 115.643 152.478 120.566 152.478 120.566C152.478 120.566 152.699 123.874 162.431 126.352C179.536 130.709 187.744 125.745 187.744 125.745C187.744 125.745 188.157 116.111 187.494 103.511C186.751 89.3955 186.504 87.3299 185.413 83.9723C184.611 82.1171 183.093 80.4491 181.037 79.5155C179.339 78.7443 175.273 77.4139 172.859 76.4827C167.243 74.3155 160.751 74.4499 160.751 74.4499C155.88 74.1219 153.888 75.7579 152.729 77.9747Z" fill="#F5F5F5"/>
<path d="M159.555 75.2084C159.918 75.2084 160.302 75.222 160.697 75.2484L160.732 75.2508L160.767 75.25C160.772 75.25 160.846 75.2484 160.98 75.2484C162.058 75.2484 167.687 75.3436 172.571 77.2292C173.548 77.606 174.809 78.0532 176.027 78.486C177.842 79.13 179.719 79.7964 180.706 80.2444C182.453 81.0372 183.894 82.498 184.664 84.2564C185.692 87.43 185.939 89.1932 186.694 103.554C187.267 114.435 187.031 123.191 186.961 125.252C185.822 125.803 182.055 127.343 175.618 127.343C171.598 127.343 167.228 126.749 162.628 125.578C154.574 123.527 153.428 120.979 153.291 120.57C153.468 119.639 154.265 114.919 153.733 107.777C153.302 101.993 152.938 98.65 152.476 94.4172L152.21 91.9732C151.567 85.9964 151.307 82.4164 153.436 78.3468C154.249 76.794 155.61 75.2084 159.555 75.2084ZM159.555 74.4084C155.542 74.4084 153.788 75.9492 152.728 77.9748C150.494 82.2444 150.771 86.0684 151.415 92.058C152.01 97.582 152.426 101.004 152.935 107.836C153.517 115.643 152.476 120.566 152.476 120.566C152.476 120.566 152.697 123.874 162.43 126.352C167.646 127.68 172.036 128.143 175.617 128.143C183.779 128.143 187.742 125.745 187.742 125.745C187.742 125.745 188.155 116.111 187.492 103.512C186.75 89.3956 186.502 87.33 185.411 83.9724C184.609 82.118 183.091 80.4492 181.035 79.5156C179.337 78.7444 175.271 77.414 172.858 76.4828C167.864 74.5556 162.178 74.4484 160.978 74.4484C160.829 74.4484 160.749 74.45 160.749 74.45C160.332 74.422 159.934 74.4084 159.555 74.4084Z" fill="#E0E0E0"/>
<path d="M173.281 71.6467L172.821 76.8395C169.979 77.4587 163.074 77.0147 161.778 75.2491L162.05 70.4907L173.281 71.6467Z" fill="#FFA8A7"/>
<path d="M180.683 58.3362C180.683 58.3362 182.002 59.3338 183.003 62.781L181.048 64.2146C180.405 61.793 179.711 59.3266 180.683 58.3362Z" fill="#F28F8F"/>
<path d="M175.643 48.6874C180.495 49.0098 181.306 51.5378 180.585 59.8114C182.287 67.6666 179.936 70.7738 178.923 71.8026C176.637 73.0274 174.313 73.2298 171.155 72.4066C168.747 71.7794 162.649 69.9706 160.095 66.1866C157.09 61.7346 156.304 54.965 159.505 52.4458C164.009 48.8994 173.711 48.5594 175.643 48.6874Z" fill="#FFA8A7"/>
<path d="M178.923 71.8027C178.363 72.3715 175.117 73.3995 173.117 73.1803L173.282 71.6467C173.282 71.6467 176.059 72.1659 178.923 71.8027Z" fill="#F28F8F"/>
<path d="M176.15 54.4018C176.047 54.757 175.893 55.0978 175.694 55.4098C175.149 56.2682 174.369 56.7298 173.538 57.2506C173.841 58.2626 174.167 59.3098 174.181 60.3834C174.185 60.7266 174.157 61.0898 173.963 61.377C173.621 61.8842 173.045 61.8346 172.78 61.3642C172.461 60.7994 172.238 60.2114 171.793 59.721C171.277 59.1538 170.573 58.7242 169.8 58.6482C166.873 58.3634 166.862 62.9194 168.036 64.4618C169.956 66.9866 171.533 65.3666 171.533 65.3666C171.533 65.3666 172.52 69.2602 169.698 70.9474C169.698 70.9474 165.152 72.0618 162.05 70.4906C160.63 67.5682 158.714 65.8626 157.19 62.7506C154.522 57.3066 155.8 52.525 157.618 51.5418C157.106 48.9994 158.653 46.501 161.942 44.9498C165.183 43.4202 169.663 44.2002 173.11 44.7522C175.158 45.0802 177.277 44.9602 179.275 44.4034C179.558 44.3242 179.845 44.2362 180.138 44.237C180.432 44.2386 180.743 44.345 180.913 44.585C181.134 44.8978 181.057 45.3354 180.887 45.6786C180.717 46.0218 180.466 46.3258 180.341 46.6882C181.051 46.4946 181.793 47.0234 182.113 47.6866C182.562 48.6154 182.376 49.773 181.788 50.6202C181.2 51.4674 180.261 52.0258 179.273 52.3194C178.284 52.6122 177.24 52.661 176.209 52.6538C176.347 53.2282 176.315 53.833 176.15 54.4018Z" fill="#263238"/>
<path d="M173.018 74.6232C173.759 74.5872 174.565 76.1184 176.02 77.6336C176.02 77.6336 171.918 80.0128 165.8 79.0912C159.682 78.1696 158.508 74.4464 158.508 74.4464C158.508 74.4464 159.906 73.3728 160.643 72.6488C161.539 71.7688 161.978 71.7544 161.978 71.7544L161.906 73.0072C161.906 73.0072 163.079 74.2224 166.808 74.9768C170.538 75.7304 173.018 74.6232 173.018 74.6232Z" fill="#E6E6E6"/>
<path d="M194.672 110.651C194.672 110.651 192.923 101.88 191.648 95.7307C190.372 89.582 190.866 82.4788 181.187 80.0452C179.586 82.4876 178.542 86.2292 179.082 90.8956C179.622 95.5619 181.751 102.88 182.286 105.354C182.822 107.828 184.635 112.754 186.942 116.182C190.01 120.74 195.732 128.452 198.048 131.287C199.12 132.599 200.05 133.927 201.036 135.322C202.065 136.776 203.431 137.907 204.65 139.207C205.212 139.808 206.02 140.239 206.811 140.459C207.331 140.605 207.847 140.405 208.34 140.541C208.85 140.681 209.159 141.152 209.762 141.169C210.432 141.187 210.977 140.725 211.583 140.783C212.216 140.844 212.834 141.074 213.498 141.057C214.096 141.041 214.504 140.956 215.077 141.195C215.546 141.392 216.202 142.013 216.736 141.696C217.335 141.34 217.152 140.687 216.94 140.147C216.566 139.194 215.517 138.259 214.624 137.785C213.588 137.236 212.694 136.455 211.596 136.027C210.604 135.642 209.735 134.792 209.019 133.997C208.519 133.441 208.192 132.583 209.206 132.571C210.401 132.557 211.884 133.011 212.972 132.255C213.724 131.733 213.469 131.067 212.74 130.751C211.519 130.222 210.409 129.632 209.27 128.926C208.136 128.223 207.089 127.404 205.94 126.736C205.342 126.388 204.685 126.097 204.041 125.83C202.239 125.081 201.454 123.278 200.545 121.686C199.279 119.466 196.091 113.602 194.672 110.651Z" fill="#FFA8A7"/>
<path d="M180.717 101.276C180.717 101.276 179.02 94.6051 178.585 91.8179C178.149 89.0307 177.902 81.7811 180.789 79.4067C182.873 79.9139 188.447 80.9059 190.053 86.1491C191.659 91.3923 194.083 105.202 194.083 105.202L201.34 122.343C201.34 122.343 201.369 123.94 198.328 126C195.287 128.061 193.736 127.359 193.736 127.359C193.736 127.359 187.743 118.287 184.835 113.816C182.883 110.813 182.403 108.823 180.717 101.276Z" fill="#E6E6E6"/>
<path d="M125.881 72.6145L125.894 62.3041L134.565 61.3905C134.754 61.3705 134.923 61.4121 135.063 61.4945C135.483 61.7409 139.47 64.0489 139.609 64.1289C140.033 64.3729 140.189 64.9889 139.794 65.4041L130.432 75.2529L125.881 72.6145Z" fill="#5169F6"/>
<path d="M98.6798 95.8761L98.679 63.972C98.679 63.5088 99.0046 62.9448 99.4054 62.7136L125.422 47.7232C125.824 47.4912 126.473 47.4944 126.871 47.7304L130.917 50.12C131.316 50.356 131.639 50.9224 131.639 51.3856L131.64 83.2896C131.64 83.7528 131.314 84.3168 130.913 84.548L104.897 99.5385C104.495 99.7705 103.846 99.7673 103.448 99.5313L99.4022 97.1417C99.0038 96.9065 98.6798 96.3393 98.6798 95.8761Z" fill="#5169F6"/>
<path opacity="0.15" d="M104.778 99.5961C104.432 99.7297 104.17 99.5361 104.168 99.1185L104.17 67.2161C104.17 66.9833 104.251 66.7273 104.384 66.4993L98.8761 63.2817C98.7529 63.5041 98.6769 63.7489 98.6785 63.9737V95.8785C98.6777 96.3401 99.0001 96.9057 99.4009 97.1433L103.446 99.5321C103.81 99.7441 104.378 99.7689 104.778 99.5961Z" fill="black"/>
<path d="M139.118 64.0279L131.64 64.8159L131.639 51.3856C131.639 50.9224 131.314 50.7343 130.913 50.9663L104.896 65.9559C104.495 66.1879 104.17 66.7511 104.17 67.2143L104.17 99.1183C104.17 99.5815 104.495 99.7695 104.897 99.5375L130.914 84.5471C131.315 84.3151 131.641 83.7519 131.641 83.2887L131.64 73.9815L139.795 65.4023C140.319 64.8527 139.873 63.9479 139.118 64.0279Z" fill="#5169F6"/>
<path opacity="0.35" d="M139.118 64.0279L131.64 64.8159L131.639 51.3856C131.639 50.9224 131.314 50.7343 130.913 50.9663L104.896 65.9559C104.495 66.1879 104.17 66.7511 104.17 67.2143L104.17 99.1183C104.17 99.5815 104.495 99.7695 104.897 99.5375L130.914 84.5471C131.315 84.3151 131.641 83.7519 131.641 83.2887L131.64 73.9815L139.795 65.4023C140.319 64.8527 139.873 63.9479 139.118 64.0279Z" fill="white"/>
<path d="M125.478 78.4465C125.535 78.2985 125.535 78.1473 125.472 78.0761L124.358 76.8417C124.107 76.5601 124.057 76.0217 124.221 75.3985C124.229 75.3865 124.229 75.3769 124.23 75.3681C124.23 75.3681 124.23 75.3681 124.234 75.3625C124.393 74.7545 124.739 74.1929 125.137 73.9017L126.919 72.6065C127.024 72.5321 127.106 72.3817 127.125 72.2321C127.221 71.4817 127.268 70.7073 127.27 69.9433C127.273 69.2097 127.226 68.4929 127.133 67.8033C127.114 67.6817 127.034 67.6225 126.929 67.6665L125.149 68.4193C124.753 68.5809 124.408 68.4273 124.25 68.0089C124.245 67.9929 124.243 67.9809 124.238 67.9649C124.075 67.5401 124.127 66.9329 124.381 66.3697L125.497 63.8569C125.559 63.7153 125.563 63.5585 125.503 63.4809C124.866 62.6281 124.082 62.0241 123.164 61.7017C123.081 61.6697 122.971 61.7377 122.887 61.8665L121.482 64.1577C121.17 64.6657 120.731 64.9913 120.337 65.0049C120.33 65.0073 120.325 65.0009 120.317 65.0041C119.925 65.0089 119.657 64.6985 119.613 64.1977L119.413 61.9377C119.402 61.8049 119.322 61.7449 119.221 61.7737C118.165 62.1265 116.964 62.8193 115.903 63.6801C115.805 63.7617 115.725 63.9145 115.713 64.0617L115.503 66.5593C115.462 67.1089 115.188 67.7297 114.799 68.1721C114.792 68.1841 114.785 68.1865 114.777 68.1985C114.382 68.6345 113.943 68.8177 113.633 68.6633L112.235 67.9873C112.153 67.9457 112.04 68.0113 111.953 68.1361C111.038 69.5129 110.249 71.0193 109.606 72.6105C109.546 72.7553 109.549 72.9097 109.613 72.9809L110.723 74.2121C110.973 74.4809 111.02 75.0377 110.857 75.6521C110.855 75.6705 110.851 75.6857 110.846 75.7009C110.679 76.3209 110.345 76.8553 109.947 77.1465L108.155 78.4505C108.057 78.5225 107.971 78.6785 107.956 78.8225C107.86 79.5817 107.809 80.3529 107.808 81.1169C107.807 81.8721 107.853 82.5897 107.947 83.2385C107.965 83.3689 108.049 83.4225 108.151 83.3753L109.937 82.6289C110.33 82.4641 110.674 82.6265 110.841 83.0545C110.84 83.0641 110.845 83.0705 110.845 83.0793C111.01 83.5161 110.959 84.1145 110.705 84.6777L109.592 87.1936C109.525 87.3416 109.522 87.4888 109.578 87.572C110.217 88.428 111.005 89.0264 111.921 89.3544C112.004 89.3864 112.117 89.312 112.198 89.1808L113.603 86.8889C113.915 86.3809 114.355 86.0553 114.748 86.0505C114.754 86.0481 114.764 86.0481 114.77 86.0457C115.16 86.0385 115.425 86.3448 115.471 86.8496L115.671 89.1096C115.682 89.2424 115.758 89.308 115.863 89.2736C116.391 89.0976 116.948 88.8424 117.52 88.5144C118.089 88.1832 118.648 87.7992 119.181 87.3673C119.28 87.2857 119.357 87.1297 119.372 86.9857L119.581 84.4881C119.625 83.9321 119.893 83.3233 120.282 82.8817C120.293 82.8729 120.303 82.8641 120.306 82.8585C120.701 82.4137 121.135 82.2321 121.451 82.3841L122.849 83.0697C122.928 83.1081 123.044 83.0457 123.128 82.9177C124.047 81.5353 124.833 80.0345 125.478 78.4465ZM117.535 82.0857C114.821 83.6417 112.621 81.9665 112.629 78.3505C112.634 74.7313 114.843 70.5153 117.555 68.9561C120.264 67.4025 122.462 69.0865 122.457 72.7057C122.452 76.3249 120.241 80.5297 117.535 82.0857Z" fill="white"/>
</svg>
