<svg width="55" height="55" viewBox="0 0 55 55" fill="none" xmlns="http://www.w3.org/2000/svg">
<rect width="55" height="55" rx="27.5" fill="#3399FF" fill-opacity="0.18"/>
<path d="M31.5964 30.4254C31.8304 29.2552 32.4155 28.436 33.3517 27.4998C34.5219 26.4466 35.107 24.9254 35.107 23.4041C35.107 21.5419 34.3673 19.756 33.0505 18.4393C31.7338 17.1226 29.9479 16.3828 28.0857 16.3828C26.2236 16.3828 24.4377 17.1226 23.1209 18.4393C21.8042 19.756 21.0645 21.5419 21.0645 23.4041C21.0645 24.5743 21.2985 25.9786 22.8198 27.4998C23.6389 28.319 24.341 29.2552 24.5751 30.4254" stroke="#3399FF" stroke-width="2.34043" stroke-linecap="round" stroke-linejoin="round"/>
<path d="M24.5752 35.1064H31.5965" stroke="#3399FF" stroke-width="2.34043" stroke-linecap="round" stroke-linejoin="round"/>
<path d="M25.7451 39.7871H30.426" stroke="#3399FF" stroke-width="2.34043" stroke-linecap="round" stroke-linejoin="round"/>
</svg>
