<svg width="35" height="35" viewBox="0 0 34 33" fill="none" xmlns="http://www.w3.org/2000/svg">
<path d="M17.1667 9.625V28.875" stroke="#3399FF" stroke-width="2.75" stroke-linecap="round" stroke-linejoin="round"/>
<path d="M4.79175 24.75C4.42708 24.75 4.07734 24.6051 3.81948 24.3473C3.56161 24.0894 3.41675 23.7397 3.41675 23.375V5.5C3.41675 5.13533 3.56161 4.78559 3.81948 4.52773C4.07734 4.26987 4.42708 4.125 4.79175 4.125H11.6667C13.1254 4.125 14.5244 4.70446 15.5558 5.73591C16.5873 6.76736 17.1667 8.16631 17.1667 9.625C17.1667 8.16631 17.7462 6.76736 18.7777 5.73591C19.8091 4.70446 21.2081 4.125 22.6667 4.125H29.5417C29.9064 4.125 30.2562 4.26987 30.514 4.52773C30.7719 4.78559 30.9167 5.13533 30.9167 5.5V23.375C30.9167 23.7397 30.7719 24.0894 30.514 24.3473C30.2562 24.6051 29.9064 24.75 29.5417 24.75H21.2917C20.1977 24.75 19.1485 25.1846 18.3749 25.9582C17.6013 26.7318 17.1667 27.781 17.1667 28.875C17.1667 27.781 16.7322 26.7318 15.9586 25.9582C15.185 25.1846 14.1358 24.75 13.0417 24.75H4.79175Z" stroke="#3399FF" stroke-width="2.75" stroke-linecap="round" stroke-linejoin="round"/>
</svg>
