<svg width="109" height="103" viewBox="0 0 109 103" fill="none" xmlns="http://www.w3.org/2000/svg">
<path d="M17.3564 59.7839C17.7816 59.6958 18.2303 59.6305 18.7035 59.5901C18.7217 59.5885 18.74 59.587 18.7583 59.5855C18.7402 59.5886 18.722 59.5916 18.7039 59.5946C18.2443 59.6714 17.7951 59.7343 17.3564 59.7839C-1.42938 61.9074 -1.14384 39.6494 10.9048 39.0937C6.01141 29.5605 9.78291 20.8787 17.6364 22.0171C18.4826 22.1946 26.7879 24.9631 24.5647 27.5096C24.5064 27.5764 24.4409 27.6429 24.3679 27.7093L24.5647 27.5096C26.7879 24.9631 18.4826 22.1946 17.6364 22.0171C9.78291 20.8787 6.01141 29.5605 10.9048 39.0937C-1.14384 39.6494 -1.42938 61.9074 17.3564 59.7839Z" fill="#051885"/>
<path d="M47.3673 100C42.8827 99.3832 41.3209 97.659 39.5139 93.1694C11.7252 99.5661 25.4898 77.8005 18.7583 80.6466C12.0267 83.4927 4.73423 60.7239 18.7583 59.5855M18.7583 59.5855C21.0418 66.2556 22.4977 69.024 26.0508 68.693M18.7583 59.5855C-1.4363 63.0008 -1.43632 39.6629 10.9048 39.0937C6.01141 29.5605 9.78291 20.8787 17.6364 22.0171M26.0508 68.693C27.7596 64.6717 29.5621 63.7311 34.4652 64.7085M26.0508 68.693C24.3679 71.5391 24.2981 74.0912 27.1727 76.0928M18.7583 60.1547C18.1973 54.4625 18.2268 52.7518 23.246 51.0472M17.6364 22.0171C18.5048 22.1992 27.2282 25.11 24.3679 27.7093M17.6364 22.0171C16.5144 10.0636 26.0508 2.66372 36.1481 7.21747M24.3679 27.7093C21.5076 30.3086 21.5631 31.6938 23.246 33.4015M24.3679 27.7093L28.8556 23.1556M36.1481 7.21747C33.9521 13.0816 34.022 15.8885 37.27 19.7403M36.1481 7.21747C44.5625 -1.32081 55.7817 3.80217 54.6598 16.325V40.2321M54.6598 40.2321C49.1353 29.8276 45.279 27.4968 36.709 31.1246C31.7906 33.6617 29.7843 35.5644 29.9775 41.3706C30.137 52.9649 34.8103 57.6264 49.0502 63.57M54.6598 40.2321C59.3186 32.0731 61.8944 29.8245 66.44 29.417C75.875 28.9748 78.7958 32.0819 79.3421 44.2166C78.0599 51.0061 69.7417 58.4347 54.6598 66.9854C48.6547 69.9883 46.6111 72.2286 44.0015 76.6621C41.6193 80.1572 41.8305 82.3006 44.0015 86.3388C53.4201 99.8213 59.3342 102.825 72.0496 92.6002C87.2877 97.1068 90.4493 94.6628 91.1223 80.6466C96.2669 80.4191 98.9702 80.0958 100.098 75.5236C101.116 69.7054 100.729 66.2658 98.9757 63.9528M61.3913 91.4617C68.6367 83.6024 68.1533 79.1092 60.8304 70.9699M82.1469 69.8314C88.5624 65.3577 90.6491 62.0957 90.2296 58.624M82.1469 69.8314C80.2967 64.9582 78.4449 64.5719 74.8544 64.7085M82.1469 69.8314C83.1849 72.4989 83.3031 73.9945 82.1469 76.6621M86.6346 51.0473C88.5779 53.939 89.9521 56.3274 90.2296 58.624M90.2296 58.624C90.4355 59.2219 90.6065 59.4716 91.1223 59.5855C94.7944 60.7373 97.4216 61.9024 98.9757 63.9528M98.9757 63.9528C109.073 56.1702 109.073 43.6474 98.9757 39.0937C103.703 28.9794 97.8538 19.7403 93.3661 22.0171L91.8702 23.1556M86.6346 27.1401C88.0432 30.2238 88.2153 31.8789 86.0736 34.5399M86.6346 27.1401C84.3281 23.4095 82.9822 22.4245 80.464 23.1556M86.6346 27.1401L91.8702 23.1556M91.8702 23.1556C93.9271 9.49434 80.464 2.09451 73.7325 7.21747M73.7325 7.21747C77.1466 12.2731 77.4125 14.932 73.1715 19.1711M73.7325 7.21747C70.3667 2.66373 63.1815 1.73692 58.5865 7.21747" stroke="#3399FF" stroke-width="4.27988"/>
</svg>
