<svg width="34" height="33" viewBox="0 0 34 33" fill="none" xmlns="http://www.w3.org/2000/svg">
<path d="M25.0835 28.875C25.0835 25.9576 23.9246 23.1597 21.8617 21.0968C19.7988 19.0339 17.0009 17.875 14.0835 17.875C11.1661 17.875 8.36822 19.0339 6.30532 21.0968C4.24242 23.1597 3.0835 25.9576 3.0835 28.875" stroke="#1AD9FF" stroke-width="2.75" stroke-linecap="round" stroke-linejoin="round"/>
<path d="M14.0835 17.875C17.8805 17.875 20.9585 14.797 20.9585 11C20.9585 7.20304 17.8805 4.125 14.0835 4.125C10.2865 4.125 7.2085 7.20304 7.2085 11C7.2085 14.797 10.2865 17.875 14.0835 17.875Z" stroke="#1AD9FF" stroke-width="2.75" stroke-linecap="round" stroke-linejoin="round"/>
<path d="M30.5836 27.4999C30.5836 22.8662 27.8336 18.5624 25.0836 16.4999C25.9875 15.8217 26.7104 14.9311 27.1881 13.907C27.6659 12.8829 27.8838 11.7568 27.8226 10.6284C27.7614 9.49996 27.423 8.40402 26.8374 7.43755C26.2517 6.47108 25.4368 5.66389 24.4648 5.0874" stroke="#1AD9FF" stroke-width="2.75" stroke-linecap="round" stroke-linejoin="round"/>
</svg>
