<svg width="55" height="55" viewBox="0 0 55 55" fill="none" xmlns="http://www.w3.org/2000/svg">
<path d="M34.3747 4.5835H20.6247C19.359 4.5835 18.333 5.60951 18.333 6.87516V11.4585C18.333 12.7241 19.359 13.7502 20.6247 13.7502H34.3747C35.6403 13.7502 36.6663 12.7241 36.6663 11.4585V6.87516C36.6663 5.60951 35.6403 4.5835 34.3747 4.5835Z" stroke="#3399FF" stroke-width="4.58333" stroke-linecap="round" stroke-linejoin="round"/>
<path d="M36.667 9.1665H41.2503C42.4659 9.1665 43.6317 9.64939 44.4912 10.5089C45.3508 11.3685 45.8337 12.5343 45.8337 13.7498V45.8332C45.8337 47.0487 45.3508 48.2145 44.4912 49.0741C43.6317 49.9336 42.4659 50.4165 41.2503 50.4165H13.7503C12.5348 50.4165 11.369 49.9336 10.5094 49.0741C9.64988 48.2145 9.16699 47.0487 9.16699 45.8332V13.7498C9.16699 12.5343 9.64988 11.3685 10.5094 10.5089C11.369 9.64939 12.5348 9.1665 13.7503 9.1665H18.3337" stroke="#3399FF" stroke-width="4.58333" stroke-linecap="round" stroke-linejoin="round"/>
<path d="M27.5 25.2085H36.6667" stroke="#3399FF" stroke-width="4.58333" stroke-linecap="round" stroke-linejoin="round"/>
<path d="M27.5 36.6665H36.6667" stroke="#3399FF" stroke-width="4.58333" stroke-linecap="round" stroke-linejoin="round"/>
<path d="M18.333 25.2085H18.356" stroke="#3399FF" stroke-width="4.58333" stroke-linecap="round" stroke-linejoin="round"/>
<path d="M18.333 36.6665H18.356" stroke="#3399FF" stroke-width="4.58333" stroke-linecap="round" stroke-linejoin="round"/>
</svg>
