<svg width="29" height="31" viewBox="0 0 29 31" fill="none" xmlns="http://www.w3.org/2000/svg">
<path d="M3.50469 18.2536C3.24449 18.2545 2.98938 18.1815 2.769 18.0432C2.54862 17.9048 2.37201 17.7068 2.2597 17.4721C2.14738 17.2374 2.10397 16.9756 2.1345 16.7172C2.16503 16.4588 2.26826 16.2144 2.43219 16.0123L16.0447 1.98733C16.1468 1.86947 16.2859 1.78982 16.4393 1.76146C16.5926 1.73311 16.7511 1.75772 16.8886 1.83127C17.0261 1.90482 17.1345 2.02294 17.196 2.16623C17.2576 2.30952 17.2685 2.46947 17.2272 2.61983L14.5872 10.8973C14.5093 11.1057 14.4832 11.3298 14.511 11.5505C14.5388 11.7711 14.6197 11.9818 14.7468 12.1643C14.8739 12.3468 15.0434 12.4958 15.2407 12.5984C15.438 12.7011 15.6573 12.7543 15.8797 12.7536H25.5047C25.7649 12.7527 26.02 12.8257 26.2404 12.964C26.4608 13.1023 26.6374 13.3003 26.7497 13.5351C26.862 13.7698 26.9054 14.0315 26.8749 14.2899C26.8443 14.5483 26.7411 14.7928 26.5772 14.9948L12.9647 29.0198C12.8626 29.1377 12.7234 29.2173 12.5701 29.2457C12.4167 29.2741 12.2583 29.2494 12.1208 29.1759C11.9833 29.1023 11.8749 28.9842 11.8134 28.8409C11.7518 28.6976 11.7408 28.5377 11.7822 28.3873L14.4222 20.1098C14.5 19.9015 14.5262 19.6774 14.4984 19.4567C14.4706 19.236 14.3897 19.0254 14.2626 18.8429C14.1355 18.6603 13.966 18.5114 13.7687 18.4087C13.5714 18.3061 13.3521 18.2529 13.1297 18.2536H3.50469Z" stroke="#DD3C3C" stroke-width="2.75" stroke-linecap="round" stroke-linejoin="round"/>
</svg>
