<svg width="55" height="55" viewBox="0 0 55 55" fill="none" xmlns="http://www.w3.org/2000/svg">
<rect width="55" height="55" rx="27.5" fill="#3399FF" fill-opacity="0.18"/>
<path d="M19.5034 29.5026C19.3142 29.5032 19.1286 29.4502 18.9684 29.3496C18.8081 29.249 18.6796 29.105 18.598 28.9343C18.5163 28.7636 18.4847 28.5732 18.5069 28.3853C18.5291 28.1973 18.6042 28.0196 18.7234 27.8726L28.6234 17.6726C28.6977 17.5869 28.7989 17.529 28.9104 17.5083C29.0219 17.4877 29.1371 17.5056 29.2371 17.5591C29.3371 17.6126 29.416 17.6985 29.4607 17.8027C29.5055 17.9069 29.5135 18.0233 29.4834 18.1326L27.5634 24.1526C27.5068 24.3041 27.4878 24.4671 27.508 24.6276C27.5282 24.7881 27.5871 24.9413 27.6795 25.074C27.7719 25.2068 27.8952 25.3151 28.0387 25.3898C28.1822 25.4644 28.3417 25.5031 28.5034 25.5026H35.5034C35.6926 25.502 35.8782 25.555 36.0385 25.6556C36.1987 25.7562 36.3272 25.9002 36.4089 26.0709C36.4905 26.2416 36.5221 26.432 36.4999 26.6199C36.4777 26.8079 36.4026 26.9856 36.2834 27.1326L26.3834 37.3326C26.3091 37.4183 26.208 37.4762 26.0964 37.4969C25.9849 37.5175 25.8697 37.4996 25.7697 37.4461C25.6697 37.3926 25.5908 37.3067 25.5461 37.2025C25.5013 37.0983 25.4933 36.982 25.5234 36.8726L27.4434 30.8526C27.5 30.7011 27.519 30.5381 27.4988 30.3776C27.4786 30.2171 27.4198 30.0639 27.3273 29.9312C27.2349 29.7984 27.1116 29.6901 26.9681 29.6154C26.8246 29.5408 26.6652 29.5021 26.5034 29.5026H19.5034Z" stroke="#3399FF" stroke-width="2" stroke-linecap="round" stroke-linejoin="round"/>
</svg>
