<svg width="55" height="55" viewBox="0 0 55 55" fill="none" xmlns="http://www.w3.org/2000/svg">
<path d="M27.4997 13.7502V4.5835H18.333" stroke="#3399FF" stroke-width="4.58333" stroke-linecap="round" stroke-linejoin="round"/>
<path d="M18.3337 41.25L9.16699 50.4167V18.3333C9.16699 17.1178 9.64988 15.952 10.5094 15.0924C11.369 14.2329 12.5348 13.75 13.7503 13.75H41.2503C42.4659 13.75 43.6317 14.2329 44.4912 15.0924C45.3508 15.952 45.8337 17.1178 45.8337 18.3333V36.6667C45.8337 37.8822 45.3508 39.048 44.4912 39.9076C43.6317 40.7671 42.4659 41.25 41.2503 41.25H18.3337Z" stroke="#3399FF" stroke-width="4.58333" stroke-linecap="round" stroke-linejoin="round"/>
<path d="M4.58301 27.5H9.16634" stroke="#3399FF" stroke-width="4.58333" stroke-linecap="round" stroke-linejoin="round"/>
<path d="M20.625 25.2085V29.7918" stroke="#3399FF" stroke-width="4.58333" stroke-linecap="round" stroke-linejoin="round"/>
<path d="M34.375 25.2085V29.7918" stroke="#3399FF" stroke-width="4.58333" stroke-linecap="round" stroke-linejoin="round"/>
<path d="M45.833 27.5H50.4163" stroke="#3399FF" stroke-width="4.58333" stroke-linecap="round" stroke-linejoin="round"/>
</svg>
