<svg width="51" height="52" viewBox="0 0 51 52" fill="none" xmlns="http://www.w3.org/2000/svg">
<path d="M31.7679 4.78101H19.1431C17.981 4.78101 17.0389 5.72306 17.0389 6.88514V11.0934C17.0389 12.2555 17.981 13.1976 19.1431 13.1976H31.7679C32.93 13.1976 33.8721 12.2555 33.8721 11.0934V6.88514C33.8721 5.72306 32.93 4.78101 31.7679 4.78101Z" stroke="#3399FF" stroke-width="4.20828" stroke-linecap="round" stroke-linejoin="round"/>
<path d="M33.8719 8.98926H38.0802C39.1963 8.98926 40.2667 9.43263 41.0559 10.2218C41.8451 11.011 42.2885 12.0814 42.2885 13.1975V42.6555C42.2885 43.7716 41.8451 44.842 41.0559 45.6312C40.2667 46.4204 39.1963 46.8638 38.0802 46.8638H26.5074" stroke="#3399FF" stroke-width="4.20828" stroke-linecap="round" stroke-linejoin="round"/>
<path d="M8.62231 28.9786V13.1975C8.62231 12.0814 9.06569 11.011 9.85489 10.2218C10.6441 9.43263 11.7145 8.98926 12.8306 8.98926H17.0389" stroke="#3399FF" stroke-width="4.20828" stroke-linecap="round" stroke-linejoin="round"/>
<path d="M28.3549 33.4521C28.7699 33.037 29.0992 32.5443 29.3238 32.0021C29.5484 31.4598 29.664 30.8786 29.664 30.2916C29.664 29.7047 29.5484 29.1235 29.3238 28.5812C29.0992 28.039 28.7699 27.5463 28.3549 27.1312C27.9399 26.7162 27.4472 26.387 26.9049 26.1624C26.3626 25.9377 25.7814 25.8221 25.1945 25.8221C24.6075 25.8221 24.0263 25.9377 23.4841 26.1624C22.9418 26.387 22.4491 26.7162 22.0341 27.1312L11.4923 37.6772C10.9921 38.1772 10.6259 38.7952 10.4276 39.4741L8.66647 45.513C8.61366 45.694 8.6105 45.886 8.65731 46.0687C8.70411 46.2514 8.79917 46.4181 8.93253 46.5515C9.0659 46.6849 9.23266 46.7799 9.41536 46.8267C9.59806 46.8735 9.78998 46.8704 9.97104 46.8176L16.0099 45.0564C16.6888 44.8581 17.3069 44.492 17.8069 43.9917L28.3549 33.4521Z" stroke="#3399FF" stroke-width="4.20828" stroke-linecap="round" stroke-linejoin="round"/>
</svg>
